<?xml version="1.0" encoding="UTF-8" standalone="no"?>
<!DOCTYPE svg PUBLIC "-//W3C//DTD SVG 1.1//EN" "http://www.w3.org/Graphics/SVG/1.1/DTD/svg11.dtd">
<!-- Generated by graphviz version 2.40.1 (20161225.0304)
 -->
<!-- Title: TD Pages: 1 -->
<svg xmlns="http://www.w3.org/2000/svg" xmlns:xlink="http://www.w3.org/1999/xlink" width="1175pt" height="559pt" viewBox="0.00 0.00 1174.50 558.90">
  <g id="graph0" class="graph" transform="scale(1 1) rotate(0) translate(4 554.9)">
    <title>TD</title>
    <g id="a_graph0">
      <a xlink:title="Click the boxes for further information">
        <polygon fill="#ffffff" stroke="transparent" points="-4,4 -4,-554.9 1170.5,-554.9 1170.5,4 -4,4"/>
      </a>
    </g>
    <!-- 3&#45;&gt;4 -->
    <!-- 3&#45;&gt;5 -->
    <!-- 4&#45;&gt;5 -->
    <g id="edge3" class="edge">
      <title>4-&gt;5</title>
      <path fill="none" stroke="#000000" d="M302.821,-459C311.202,-459 319.6641,-459 328.0915,-459"/>
      <polygon fill="#000000" stroke="#000000" points="328.346,-462.5001 338.346,-459 328.3459,-455.5001 328.346,-462.5001"/>
    </g>
    <!-- 4&#45;&gt;6 -->
    <g id="edge4" class="edge">
      <title>4-&gt;6</title>
      <path fill="none" stroke="#000000" d="M176.5,-440.461C176.5,-421.7194 176.5,-392.4961 176.5,-370.7483"/>
      <polygon fill="#000000" stroke="#000000" points="180.0001,-370.4522 176.5,-360.4523 173.0001,-370.4523 180.0001,-370.4522"/>
    </g>
    <!-- 5&#45;&gt;7 -->
    <!-- 6&#45;&gt;7 -->
    <g id="edge5" class="edge">
      <title>6-&gt;7</title>
      <path fill="none" stroke="#000000" d="M302.821,-342C311.202,-342 319.6641,-342 328.0915,-342"/>
      <polygon fill="#000000" stroke="#000000" points="328.346,-345.5001 338.346,-342 328.3459,-338.5001 328.346,-345.5001"/>
    </g>
    <!-- 6&#45;&gt;8 -->
    <g id="edge6" class="edge">
      <title>6-&gt;8</title>
      <path fill="none" stroke="#000000" d="M176.5,-323.4582C176.5,-315.9583 176.5,-307.1245 176.5,-298.8217"/>
      <polygon fill="#000000" stroke="#000000" points="180.0001,-298.7292 176.5,-288.7292 173.0001,-298.7292 180.0001,-298.7292"/>
    </g>
    <!-- 7&#45;&gt;9 -->
    <!-- 8&#45;&gt;9 -->
    <g id="edge7" class="edge">
      <title>8-&gt;9</title>
      <path fill="none" stroke="#000000" d="M302.821,-270C311.202,-270 319.6641,-270 328.0915,-270"/>
      <polygon fill="#000000" stroke="#000000" points="328.346,-273.5001 338.346,-270 328.3459,-266.5001 328.346,-273.5001"/>
    </g>
    <!-- 8&#45;&gt;10 -->
    <g id="edge8" class="edge">
      <title>8-&gt;10</title>
      <path fill="none" stroke="#000000" d="M176.5,-251.6198C176.5,-241.5742 176.5,-228.9094 176.5,-217.6023"/>
      <polygon fill="#000000" stroke="#000000" points="180.0001,-217.3074 176.5,-207.3074 173.0001,-217.3074 180.0001,-217.3074"/>
    </g>
    <!-- 9&#45;&gt;11 -->
    <!-- 10&#45;&gt;12 -->
    <g id="edge10" class="edge">
      <title>10-&gt;12</title>
      <path fill="none" stroke="#000000" d="M176.5,-170.5119C176.5,-152.5037 176.5,-124.3978 176.5,-100.3026"/>
      <polygon fill="#000000" stroke="#000000" points="180.0001,-100.2628 176.5,-90.2628 173.0001,-100.2629 180.0001,-100.2628"/>
    </g>
    <!-- 10&#45;&gt;C -->
    <g id="edge9" class="edge">
      <title>10-&gt;C</title>
      <path fill="none" stroke="#000000" d="M302.821,-189C311.202,-189 319.6641,-189 328.0915,-189"/>
      <polygon fill="#000000" stroke="#000000" points="328.346,-192.5001 338.346,-189 328.3459,-185.5001 328.346,-192.5001"/>
    </g>
    <!-- 13&#45;&gt;14 -->
    <g id="edge15" class="edge">
      <title>13-&gt;14</title>
      <path fill="none" stroke="#ffffff" d="M869.4147,-521.8417C845.951,-509.2299 811.8914,-490.9229 786.5804,-477.3182"/>
    </g>
    <!-- 14&#45;&gt;15 -->
    <g id="edge16" class="edge">
      <title>14-&gt;15</title>
      <path fill="none" stroke="#000000" d="M752.5,-440.5338C752.5,-407.5065 752.5,-338.1051 752.5,-298.7801"/>
      <polygon fill="#000000" stroke="#000000" points="756.0001,-298.5412 752.5,-288.5412 749.0001,-298.5412 756.0001,-298.5412"/>
    </g>
    <!-- 15&#45;&gt;16 -->
    <g id="edge17" class="edge">
      <title>15-&gt;16</title>
      <path fill="none" stroke="#000000" d="M878.821,-270C887.202,-270 895.6641,-270 904.0915,-270"/>
      <polygon fill="#000000" stroke="#000000" points="904.346,-273.5001 914.346,-270 904.3459,-266.5001 904.346,-273.5001"/>
    </g>
    <!-- 15&#45;&gt;17 -->
    <g id="edge18" class="edge">
      <title>15-&gt;17</title>
      <path fill="none" stroke="#000000" d="M752.5,-251.6198C752.5,-241.5742 752.5,-228.9094 752.5,-217.6023"/>
      <polygon fill="#000000" stroke="#000000" points="756.0001,-217.3074 752.5,-207.3074 749.0001,-217.3074 756.0001,-217.3074"/>
    </g>
    <!-- 16&#45;&gt;18 -->
    <!-- 17&#45;&gt;18 -->
    <g id="edge19" class="edge">
      <title>17-&gt;18</title>
      <path fill="none" stroke="#000000" d="M878.821,-189C887.202,-189 895.6641,-189 904.0915,-189"/>
      <polygon fill="#000000" stroke="#000000" points="904.346,-192.5001 914.346,-189 904.3459,-185.5001 904.346,-192.5001"/>
    </g>
    <!-- 17&#45;&gt;B -->
    <g id="edge20" class="edge">
      <title>17-&gt;B</title>
      <path fill="none" stroke="#000000" d="M752.5,-170.5119C752.5,-135.2719 752.5,-61.3632 752.5,-54.5117"/>
    </g>
    <!-- B&#45;&gt;12 -->
    <g id="edge21" class="edge">
      <title>B-&gt;12</title>
      <path fill="none" stroke="#000000" d="M751.8494,-54C737.2012,-54 478.5171,-54 313.0507,-54"/>
      <polygon fill="#000000" stroke="#000000" points="312.7833,-50.5001 302.7832,-54 312.7832,-57.5001 312.7833,-50.5001"/>
    </g>
    <!-- identification -->
    <g id="node1" class="node">
      <title>identification</title>
      <g id="a_node1">
        <a xlink:title="Blue identification box">
          <path fill="#bcd2ee" stroke="#bcd2ee" d="M19.3333,-486C19.3333,-486 9.6667,-486 9.6667,-486 4.8333,-486 0,-481.1667 0,-476.3333 0,-476.3333 0,-441.6667 0,-441.6667 0,-436.8333 4.8333,-432 9.6667,-432 9.6667,-432 19.3333,-432 19.3333,-432 24.1667,-432 29,-436.8333 29,-441.6667 29,-441.6667 29,-476.3333 29,-476.3333 29,-481.1667 24.1667,-486 19.3333,-486"/>
          <text text-anchor="middle" x="455.4" y="16.5" font-family="Helvetica,sans-Serif" font-size="12.00" fill="#000000" transform="rotate(-90)">Identification</text>
        </a>
      </g>
    </g>
    <!-- screening -->
    <g id="node2" class="node">
      <title>screening</title>
      <g id="a_node2">
        <a xlink:title="Blue screening box">
          <path fill="#bcd2ee" stroke="#bcd2ee" d="M19.3333,-384C19.3333,-384 9.6667,-384 9.6667,-384 4.8333,-384 0,-379.1667 0,-374.3333 0,-374.3333 0,-159.6667 0,-159.6667 0,-154.8333 4.8333,-150 9.6667,-150 9.6667,-150 19.3333,-150 19.3333,-150 24.1667,-150 29,-154.8333 29,-159.6667 29,-159.6667 29,-374.3333 29,-374.3333 29,-379.1667 24.1667,-384 19.3333,-384"/>
          <text text-anchor="middle" x="263.4" y="16.5" font-family="Helvetica,sans-Serif" font-size="12.00" fill="#000000" transform="rotate(-90)">Screening</text>
        </a>
      </g>
    </g>
    <!-- included -->
    <g id="node3" class="node">
      <title>included</title>
      <g id="a_node3">
        <a xlink:title="Blue included box">
          <path fill="#bcd2ee" stroke="#bcd2ee" d="M19.3333,-108C19.3333,-108 9.6667,-108 9.6667,-108 4.8333,-108 0,-103.1667 0,-98.3333 0,-98.3333 0,-9.6667 0,-9.6667 0,-4.8333 4.8333,0 9.6667,0 9.6667,0 19.3333,0 19.3333,0 24.1667,0 29,-4.8333 29,-9.6667 29,-9.6667 29,-98.3333 29,-98.3333 29,-103.1667 24.1667,-108 19.3333,-108"/>
          <text text-anchor="middle" x="50.4" y="16.5" font-family="Helvetica,sans-Serif" font-size="12.00" fill="#000000" transform="rotate(-90)">Included</text>
        </a>
      </g>
    </g>
    <!-- 3 -->
    <g id="node4" class="node">
      <title>3</title>
      <g id="a_node4">
        <a xlink:title="Yellow title box; Identification of new studies via databases and registers">
          <path fill="#ffc125" stroke="#ffc125" d="M580.8333,-550.9C580.8333,-550.9 60.1667,-550.9 60.1667,-550.9 55.3333,-550.9 50.5,-546.0667 50.5,-541.2333 50.5,-541.2333 50.5,-531.5667 50.5,-531.5667 50.5,-526.7333 55.3333,-521.9 60.1667,-521.9 60.1667,-521.9 580.8333,-521.9 580.8333,-521.9 585.6667,-521.9 590.5,-526.7333 590.5,-531.5667 590.5,-531.5667 590.5,-541.2333 590.5,-541.2333 590.5,-546.0667 585.6667,-550.9 580.8333,-550.9"/>
          <text text-anchor="middle" x="320.5" y="-532.8" font-family="Helvetica,sans-Serif" font-size="12.00" fill="#000000">Identification of new studies via databases and registers</text>
        </a>
      </g>
    </g>
    <!-- 4 -->
    <g id="node5" class="node">
      <title>4</title>
      <g id="a_node5">
        <a xlink:title="Records identified from: Databases and Registers">
          <polygon fill="none" stroke="#000000" points="302.5,-477.3005 50.5,-477.3005 50.5,-440.6995 302.5,-440.6995 302.5,-477.3005"/>
          <text text-anchor="middle" x="176.5" y="-462.6" font-family="Helvetica,sans-Serif" font-size="12.00" fill="#000000">Records identified from:</text>
          <text text-anchor="middle" x="176.5" y="-448.2" font-family="Helvetica,sans-Serif" font-size="12.00" fill="#000000">Google Scholar (n = 286)</text>
        </a>
      </g>
    </g>
    <!-- 5 -->
    <g id="node6" class="node">
      <title>5</title>
      <g id="a_node6">
        <a xlink:title="Duplicate records">
          <polygon fill="none" stroke="#000000" points="590.5,-477.3005 338.5,-477.3005 338.5,-440.6995 590.5,-440.6995 590.5,-477.3005"/>
          <text text-anchor="middle" x="464.5" y="-462.6" font-family="Helvetica,sans-Serif" font-size="12.00" fill="#000000">Records removed before screening:</text>
          <text text-anchor="middle" x="464.5" y="-448.2" font-family="Helvetica,sans-Serif" font-size="12.00" fill="#000000">Duplicate records (n = 4)</text>
        </a>
      </g>
    </g>
    <!-- 6 -->
    <g id="node7" class="node">
      <title>6</title>
      <g id="a_node7">
        <a xlink:title="Records screened (databases and registers)">
          <polygon fill="none" stroke="#000000" points="302.5,-360.3005 50.5,-360.3005 50.5,-323.6995 302.5,-323.6995 302.5,-360.3005"/>
          <text text-anchor="middle" x="176.5" y="-345.6" font-family="Helvetica,sans-Serif" font-size="12.00" fill="#000000">Records screened</text>
          <text text-anchor="middle" x="176.5" y="-331.2" font-family="Helvetica,sans-Serif" font-size="12.00" fill="#000000">(n = 282)</text>
        </a>
      </g>
    </g>
    <!-- 7 -->
    <g id="node8" class="node">
      <title>7</title>
      <g id="a_node8">
        <a xlink:title="Records excluded (databases and registers)">
          <polygon fill="none" stroke="#000000" points="590.5,-360.3005 338.5,-360.3005 338.5,-323.6995 590.5,-323.6995 590.5,-360.3005"/>
          <text text-anchor="middle" x="464.5" y="-345.6" font-family="Helvetica,sans-Serif" font-size="12.00" fill="#000000">Records excluded</text>
          <text text-anchor="middle" x="464.5" y="-331.2" font-family="Helvetica,sans-Serif" font-size="12.00" fill="#000000">(n = 103)</text>
        </a>
      </g>
    </g>
    <!-- 8 -->
    <g id="node9" class="node">
      <title>8</title>
      <g id="a_node9">
        <a xlink:title="Reports sought for retrieval (databases and registers)">
          <polygon fill="none" stroke="#000000" points="302.5,-288.3005 50.5,-288.3005 50.5,-251.6995 302.5,-251.6995 302.5,-288.3005"/>
          <text text-anchor="middle" x="176.5" y="-273.6" font-family="Helvetica,sans-Serif" font-size="12.00" fill="#000000">Reports sought for retrieval</text>
          <text text-anchor="middle" x="176.5" y="-259.2" font-family="Helvetica,sans-Serif" font-size="12.00" fill="#000000">(n = 179)</text>
        </a>
      </g>
    </g>
    <!-- 9 -->
    <g id="node10" class="node">
      <title>9</title>
      <g id="a_node10">
        <a xlink:title="Reports not retrieved (databases and registers)">
          <polygon fill="none" stroke="#000000" points="590.5,-288.3005 338.5,-288.3005 338.5,-251.6995 590.5,-251.6995 590.5,-288.3005"/>
          <text text-anchor="middle" x="464.5" y="-273.6" font-family="Helvetica,sans-Serif" font-size="12.00" fill="#000000">Reports not retrieved</text>
          <text text-anchor="middle" x="464.5" y="-259.2" font-family="Helvetica,sans-Serif" font-size="12.00" fill="#000000">(n = 0)</text>
        </a>
      </g>
    </g>
    <!-- 10 -->
    <g id="node11" class="node">
      <title>10</title>
      <g id="a_node11">
        <a xlink:title="Reports assessed for eligibility (databases and registers)">
          <polygon fill="none" stroke="#000000" points="302.5,-207.3005 50.5,-207.3005 50.5,-170.6995 302.5,-170.6995 302.5,-207.3005"/>
          <text text-anchor="middle" x="176.5" y="-192.6" font-family="Helvetica,sans-Serif" font-size="12.00" fill="#000000">Reports assessed for eligibility</text>
          <text text-anchor="middle" x="176.5" y="-178.2" font-family="Helvetica,sans-Serif" font-size="12.00" fill="#000000">(n = 179)</text>
        </a>
      </g>
    </g>
    <!-- 11 -->
    <g id="node12" class="node">
      <title>11</title>
      <g id="a_node12">
        <a xlink:title="Reports excluded (databases and registers)">
          <polygon fill="#ffffff" stroke="#000000" points="590.5,-214.7004 338.5,-214.7004 338.5,-163.2996 590.5,-163.2996 590.5,-214.7004"/>
          <text text-anchor="middle" x="464.5" y="-199.8" font-family="Helvetica,sans-Serif" font-size="12.00" fill="#000000">Reports excluded:</text>
          <text text-anchor="middle" x="464.5" y="-185.4" font-family="Helvetica,sans-Serif" font-size="12.00" fill="#000000">Criterion 1: New task data (n = 71)</text>
          <text text-anchor="middle" x="464.5" y="-171" font-family="Helvetica,sans-Serif" font-size="12.00" fill="#000000">Criterion 2: Effect of handedness (n = 104)</text>
        </a>
      </g>
    </g>
    <!-- 12 -->
    <g id="node13" class="node">
      <title>12</title>
      <g id="a_node13">
        <a xlink:title="New studies included in review">
          <polygon fill="none" stroke="#000000" points="302.5,-90 50.5,-90 50.5,-18 302.5,-18 302.5,-90"/>
          <text text-anchor="middle" x="176.5" y="-72" font-family="Helvetica,sans-Serif" font-size="12.00" fill="#000000">New studies included in review</text>
          <text text-anchor="middle" x="176.5" y="-57.6" font-family="Helvetica,sans-Serif" font-size="12.00" fill="#000000">(n = 6)</text>
          <text text-anchor="middle" x="176.5" y="-43.2" font-family="Helvetica,sans-Serif" font-size="12.00" fill="#000000">Reports of new included studies</text>
          <text text-anchor="middle" x="176.5" y="-28.8" font-family="Helvetica,sans-Serif" font-size="12.00" fill="#000000">(n = 6)</text>
        </a>
      </g>
    </g>
    <!-- 13 -->
    <g id="node14" class="node">
      <title>13</title>
      <g id="a_node14">
        <a xlink:title="Grey title box; Identification of new studies via other methods">
          <path fill="#dcdcdc" stroke="#dcdcdc" d="M1156.8333,-550.9C1156.8333,-550.9 636.1667,-550.9 636.1667,-550.9 631.3333,-550.9 626.5,-546.0667 626.5,-541.2333 626.5,-541.2333 626.5,-531.5667 626.5,-531.5667 626.5,-526.7333 631.3333,-521.9 636.1667,-521.9 636.1667,-521.9 1156.8333,-521.9 1156.8333,-521.9 1161.6667,-521.9 1166.5,-526.7333 1166.5,-531.5667 1166.5,-531.5667 1166.5,-541.2333 1166.5,-541.2333 1166.5,-546.0667 1161.6667,-550.9 1156.8333,-550.9"/>
          <text text-anchor="middle" x="896.5" y="-532.8" font-family="Helvetica,sans-Serif" font-size="12.00" fill="#000000">Identification of new studies via other methods</text>
        </a>
      </g>
    </g>
    <!-- 14 -->
    <g id="node15" class="node">
      <title>14</title>
      <g id="a_node15">
        <a xlink:title="Records identified from: Websites, Organisations and Citation Searching">
          <polygon fill="#dcdcdc" stroke="#dcdcdc" points="878.5,-477.3005 626.5,-477.3005 626.5,-440.6995 878.5,-440.6995 878.5,-477.3005"/>
          <text text-anchor="middle" x="752.5" y="-462.6" font-family="Helvetica,sans-Serif" font-size="12.00" fill="#000000">Records identified from:</text>
          <text text-anchor="middle" x="752.5" y="-448.2" font-family="Helvetica,sans-Serif" font-size="12.00" fill="#000000">Citation searching (n = 2)</text>
        </a>
      </g>
    </g>
    <!-- 15 -->
    <g id="node16" class="node">
      <title>15</title>
      <g id="a_node16">
        <a xlink:title="Reports sought for retrieval (other)">
          <polygon fill="#dcdcdc" stroke="#dcdcdc" points="878.5,-288.3005 626.5,-288.3005 626.5,-251.6995 878.5,-251.6995 878.5,-288.3005"/>
          <text text-anchor="middle" x="752.5" y="-273.6" font-family="Helvetica,sans-Serif" font-size="12.00" fill="#000000">Reports sought for retrieval</text>
          <text text-anchor="middle" x="752.5" y="-259.2" font-family="Helvetica,sans-Serif" font-size="12.00" fill="#000000">(n = 2)</text>
        </a>
      </g>
    </g>
    <!-- 16 -->
    <g id="node17" class="node">
      <title>16</title>
      <g id="a_node17">
        <a xlink:title="Reports not retrieved (other)">
          <polygon fill="#dcdcdc" stroke="#dcdcdc" points="1166.5,-288.3005 914.5,-288.3005 914.5,-251.6995 1166.5,-251.6995 1166.5,-288.3005"/>
          <text text-anchor="middle" x="1040.5" y="-273.6" font-family="Helvetica,sans-Serif" font-size="12.00" fill="#000000">Reports not retrieved</text>
          <text text-anchor="middle" x="1040.5" y="-259.2" font-family="Helvetica,sans-Serif" font-size="12.00" fill="#000000">(n = 0)</text>
        </a>
      </g>
    </g>
    <!-- 17 -->
    <g id="node18" class="node">
      <title>17</title>
      <g id="a_node18">
        <a xlink:title="Reports assessed for eligibility (other)">
          <polygon fill="#dcdcdc" stroke="#dcdcdc" points="878.5,-207.3005 626.5,-207.3005 626.5,-170.6995 878.5,-170.6995 878.5,-207.3005"/>
          <text text-anchor="middle" x="752.5" y="-192.6" font-family="Helvetica,sans-Serif" font-size="12.00" fill="#000000">Reports assessed for eligibility</text>
          <text text-anchor="middle" x="752.5" y="-178.2" font-family="Helvetica,sans-Serif" font-size="12.00" fill="#000000">(n = 2)</text>
        </a>
      </g>
    </g>
    <!-- 18 -->
    <g id="node19" class="node">
      <title>18</title>
      <g id="a_node19">
        <a xlink:title="Reports excluded (other)">
          <polygon fill="#dcdcdc" stroke="#dcdcdc" points="1166.5,-207.3005 914.5,-207.3005 914.5,-170.6995 1166.5,-170.6995 1166.5,-207.3005"/>
          <text text-anchor="middle" x="1040.5" y="-192.6" font-family="Helvetica,sans-Serif" font-size="12.00" fill="#000000">Reports excluded:</text>
          <text text-anchor="middle" x="1040.5" y="-178.2" font-family="Helvetica,sans-Serif" font-size="12.00" fill="#000000">0 (n = 0)</text>
        </a>
      </g>
    </g>
    <!-- B -->
    <g id="node20" class="node">
      <title>B</title>
      <polygon fill="none" stroke="#ffffff" points="753,-54.5 752,-54.5 752,-53.5 753,-53.5 753,-54.5"/>
    </g>
    <!-- C -->
  </g>
</svg>
