<?xml version="1.0" encoding="UTF-8" standalone="no"?>
<!-- Generated by graphviz version 2.40.1 (20161225.0304)
 -->

<!-- Title: TD Pages: 1 -->

<svg
   width="599pt"
   height="559pt"
   viewBox="0.00 0.00 598.50 558.90"
   version="1.1"
   id="svg1058"
   sodipodi:docname="AUT_primsa.svg"
   inkscape:version="1.2.2 (b0a8486541, 2022-12-01)"
   inkscape:export-filename="AUT_prisma.png"
   inkscape:export-xdpi="300"
   inkscape:export-ydpi="300"
   xmlns:inkscape="http://www.inkscape.org/namespaces/inkscape"
   xmlns:sodipodi="http://sodipodi.sourceforge.net/DTD/sodipodi-0.dtd"
   xmlns:xlink="http://www.w3.org/1999/xlink"
   xmlns="http://www.w3.org/2000/svg"
   xmlns:svg="http://www.w3.org/2000/svg">
  <defs
     id="defs1062" />
  <sodipodi:namedview
     id="namedview1060"
     pagecolor="#ffffff"
     bordercolor="#000000"
     borderopacity="0.25"
     inkscape:showpageshadow="2"
     inkscape:pageopacity="0.0"
     inkscape:pagecheckerboard="0"
     inkscape:deskcolor="#d1d1d1"
     inkscape:document-units="pt"
     showgrid="false"
     inkscape:zoom="0.53033009"
     inkscape:cx="230.98821"
     inkscape:cy="400.69384"
     inkscape:window-width="815"
     inkscape:window-height="734"
     inkscape:window-x="0"
     inkscape:window-y="30"
     inkscape:window-maximized="1"
     inkscape:current-layer="graph0" />
  <g
     id="graph0"
     class="graph"
     transform="scale(1 1) rotate(0) translate(4 554.9)">
    <title
       id="title840">TD</title>
    <g
       id="a_graph0">
      <a
         xlink:title="Click the boxes for further information"
         id="a844">
        <polygon
           fill="#ffffff"
           stroke="transparent"
           points="-4,4 -4,-554.9 594.5,-554.9 594.5,4 -4,4"
           id="polygon842" />
      </a>
    </g>
    <!-- 3&#45;&gt;4 -->
    <!-- 3&#45;&gt;5 -->
    <!-- 4&#45;&gt;5 -->
    <g
       id="edge3"
       class="edge">
      <title
         id="title847">4-&gt;5</title>
      <path
         fill="none"
         stroke="#000000"
         d="M302.821,-459C311.202,-459 319.6641,-459 328.0915,-459"
         id="path849" />
      <polygon
         fill="#000000"
         stroke="#000000"
         points="328.346,-462.5001 338.346,-459 328.3459,-455.5001 328.346,-462.5001"
         id="polygon851" />
    </g>
    <!-- 4&#45;&gt;6 -->
    <g
       id="edge4"
       class="edge">
      <title
         id="title854">4-&gt;6</title>
      <path
         fill="none"
         stroke="#000000"
         d="M176.5,-440.461C176.5,-421.7194 176.5,-392.4961 176.5,-370.7483"
         id="path856" />
      <polygon
         fill="#000000"
         stroke="#000000"
         points="180.0001,-370.4522 176.5,-360.4523 173.0001,-370.4523 180.0001,-370.4522"
         id="polygon858" />
    </g>
    <!-- 5&#45;&gt;7 -->
    <!-- 6&#45;&gt;7 -->
    <g
       id="edge5"
       class="edge">
      <title
         id="title861">6-&gt;7</title>
      <path
         fill="none"
         stroke="#000000"
         d="M302.821,-342C311.202,-342 319.6641,-342 328.0915,-342"
         id="path863" />
      <polygon
         fill="#000000"
         stroke="#000000"
         points="328.346,-345.5001 338.346,-342 328.3459,-338.5001 328.346,-345.5001"
         id="polygon865" />
    </g>
    <!-- 6&#45;&gt;8 -->
    <g
       id="edge6"
       class="edge">
      <title
         id="title868">6-&gt;8</title>
      <path
         fill="none"
         stroke="#000000"
         d="M176.5,-323.4582C176.5,-315.9583 176.5,-307.1245 176.5,-298.8217"
         id="path870" />
      <polygon
         fill="#000000"
         stroke="#000000"
         points="180.0001,-298.7292 176.5,-288.7292 173.0001,-298.7292 180.0001,-298.7292"
         id="polygon872" />
    </g>
    <!-- 7&#45;&gt;9 -->
    <!-- 8&#45;&gt;9 -->
    <g
       id="edge7"
       class="edge">
      <title
         id="title875">8-&gt;9</title>
      <path
         fill="none"
         stroke="#000000"
         d="M302.821,-270C311.202,-270 319.6641,-270 328.0915,-270"
         id="path877" />
      <polygon
         fill="#000000"
         stroke="#000000"
         points="328.346,-273.5001 338.346,-270 328.3459,-266.5001 328.346,-273.5001"
         id="polygon879" />
    </g>
    <!-- 8&#45;&gt;10 -->
    <g
       id="edge8"
       class="edge">
      <title
         id="title882">8-&gt;10</title>
      <path
         fill="none"
         stroke="#000000"
         d="M176.5,-251.6198C176.5,-241.5742 176.5,-228.9094 176.5,-217.6023"
         id="path884" />
      <polygon
         fill="#000000"
         stroke="#000000"
         points="180.0001,-217.3074 176.5,-207.3074 173.0001,-217.3074 180.0001,-217.3074"
         id="polygon886" />
    </g>
    <!-- 9&#45;&gt;11 -->
    <!-- 10&#45;&gt;12 -->
    <g
       id="edge10"
       class="edge">
      <title
         id="title889">10-&gt;12</title>
      <path
         fill="none"
         stroke="#000000"
         d="M176.5,-170.5119C176.5,-152.5037 176.5,-124.3978 176.5,-100.3026"
         id="path891" />
      <polygon
         fill="#000000"
         stroke="#000000"
         points="180.0001,-100.2628 176.5,-90.2628 173.0001,-100.2629 180.0001,-100.2628"
         id="polygon893" />
    </g>
    <!-- 10&#45;&gt;C -->
    <g
       id="edge9"
       class="edge">
      <title
         id="title896">10-&gt;C</title>
      <path
         fill="none"
         stroke="#000000"
         d="M302.821,-189C311.202,-189 319.6641,-189 328.0915,-189"
         id="path898" />
      <polygon
         fill="#000000"
         stroke="#000000"
         points="328.346,-192.5001 338.346,-189 328.3459,-185.5001 328.346,-192.5001"
         id="polygon900" />
    </g>
    <!-- identification -->
    <g
       id="node1"
       class="node"
       transform="translate(0,-2.613295)">
      <title
         id="title903">identification</title>
      <g
         id="a_node1">
        <a
           xlink:title="Blue identification box"
           id="a909">
          <path
             fill="#bcd2ee"
             stroke="#bcd2ee"
             d="m 19.299634,-495.66972 c 0,0 -9.5992684,0 -9.5992684,0 -4.7997337,0 -9.59936806,7.03209 -9.59936806,14.06433 0,0 0,50.43735 0,50.43735 0,7.03224 4.79963436,14.06433 9.59936806,14.06433 0,0 9.5992684,0 9.5992684,0 4.799734,0 9.599368,-7.03209 9.599368,-14.06433 0,0 0,-50.43735 0,-50.43735 0,-7.03224 -4.799634,-14.06433 -9.599368,-14.06433"
             id="path905"
             style="stroke-width:1.202" />
          <text
             text-anchor="middle"
             x="456.20071"
             y="16.5"
             font-family="Helvetica, sans-Serif"
             font-size="12px"
             fill="#000000"
             transform="rotate(-90)"
             id="text907">Identification</text>
        </a>
      </g>
    </g>
    <!-- screening -->
    <g
       id="node2"
       class="node">
      <title
         id="title913">screening</title>
      <g
         id="a_node2">
        <a
           xlink:title="Blue screening box"
           id="a919">
          <path
             fill="#bcd2ee"
             stroke="#bcd2ee"
             d="M19.3333,-384C19.3333,-384 9.6667,-384 9.6667,-384 4.8333,-384 0,-379.1667 0,-374.3333 0,-374.3333 0,-159.6667 0,-159.6667 0,-154.8333 4.8333,-150 9.6667,-150 9.6667,-150 19.3333,-150 19.3333,-150 24.1667,-150 29,-154.8333 29,-159.6667 29,-159.6667 29,-374.3333 29,-374.3333 29,-379.1667 24.1667,-384 19.3333,-384"
             id="path915" />
          <text
             text-anchor="middle"
             x="263.4"
             y="16.5"
             font-family="Helvetica,sans-Serif"
             font-size="12.00"
             fill="#000000"
             transform="rotate(-90)"
             id="text917">Screening</text>
        </a>
      </g>
    </g>
    <!-- included -->
    <g
       id="node3"
       class="node">
      <title
         id="title923">included</title>
      <g
         id="a_node3">
        <a
           xlink:title="Blue included box"
           id="a929">
          <path
             fill="#bcd2ee"
             stroke="#bcd2ee"
             d="M19.3333,-108C19.3333,-108 9.6667,-108 9.6667,-108 4.8333,-108 0,-103.1667 0,-98.3333 0,-98.3333 0,-9.6667 0,-9.6667 0,-4.8333 4.8333,0 9.6667,0 9.6667,0 19.3333,0 19.3333,0 24.1667,0 29,-4.8333 29,-9.6667 29,-9.6667 29,-98.3333 29,-98.3333 29,-103.1667 24.1667,-108 19.3333,-108"
             id="path925" />
          <text
             text-anchor="middle"
             x="50.4"
             y="16.5"
             font-family="Helvetica,sans-Serif"
             font-size="12.00"
             fill="#000000"
             transform="rotate(-90)"
             id="text927">Included</text>
        </a>
      </g>
    </g>
    <!-- 3 -->
    <g
       id="node4"
       class="node"
       transform="translate(0,3.7379859e-4)">
      <title
         id="title933">3</title>
      <g
         id="a_node4">
        <a
           xlink:title="Yellow title box; Identification of new studies via databases and registers"
           id="a939">
          <path
             fill="#ffc125"
             stroke="#ffc125"
             d="m 580.8333,-550.9 c 0,0 -520.6666,0 -520.6666,0 -4.8334,0 -9.6667,4.8333 -9.6667,9.6667 0,0 0,9.6666 0,9.6666 0,4.8334 4.8333,9.6667 9.6667,9.6667 0,0 520.6666,0 520.6666,0 4.8334,0 9.6667,-4.8333 9.6667,-9.6667 0,0 0,-9.6666 0,-9.6666 0,-4.8334 -4.8333,-9.6667 -9.6667,-9.6667"
             id="path935" />
          <text
             text-anchor="middle"
             x="320.5"
             y="-532.79999"
             font-family="Helvetica, sans-Serif"
             font-size="12px"
             fill="#000000"
             id="text937">Alternate Uses Test: Identification of studies via database search</text>
        </a>
      </g>
    </g>
    <!-- 4 -->
    <g
       id="node5"
       class="node">
      <title
         id="title943">4</title>
      <g
         id="a_node5">
        <a
           xlink:title="Records identified from: Databases and Registers"
           id="a951">
          <polygon
             fill="none"
             stroke="#000000"
             points="302.5,-477.3005 50.5,-477.3005 50.5,-440.6995 302.5,-440.6995 302.5,-477.3005"
             id="polygon945" />
          <text
             text-anchor="middle"
             x="176.5"
             y="-462.6"
             font-family="Helvetica,sans-Serif"
             font-size="12.00"
             fill="#000000"
             id="text947">Records identified from:</text>
          <text
             text-anchor="middle"
             x="176.5"
             y="-448.2"
             font-family="Helvetica,sans-Serif"
             font-size="12.00"
             fill="#000000"
             id="text949">Google Scholar (n = 311)</text>
        </a>
      </g>
    </g>
    <!-- 5 -->
    <g
       id="node6"
       class="node">
      <title
         id="title955">5</title>
      <g
         id="a_node6">
        <a
           xlink:title="Duplicate records"
           id="a963">
          <polygon
             fill="none"
             stroke="#000000"
             points="590.5,-477.3005 338.5,-477.3005 338.5,-440.6995 590.5,-440.6995 590.5,-477.3005"
             id="polygon957" />
          <text
             text-anchor="middle"
             x="464.5"
             y="-462.6"
             font-family="Helvetica,sans-Serif"
             font-size="12.00"
             fill="#000000"
             id="text959">Records removed before screening:</text>
          <text
             text-anchor="middle"
             x="464.5"
             y="-448.2"
             font-family="Helvetica,sans-Serif"
             font-size="12.00"
             fill="#000000"
             id="text961">Duplicate records (n = 14)</text>
        </a>
      </g>
    </g>
    <!-- 6 -->
    <g
       id="node7"
       class="node">
      <title
         id="title967">6</title>
      <g
         id="a_node7">
        <a
           xlink:title="Records screened (databases and registers)"
           id="a975">
          <polygon
             fill="none"
             stroke="#000000"
             points="302.5,-360.3005 50.5,-360.3005 50.5,-323.6995 302.5,-323.6995 302.5,-360.3005"
             id="polygon969" />
          <text
             text-anchor="middle"
             x="176.5"
             y="-345.6"
             font-family="Helvetica,sans-Serif"
             font-size="12.00"
             fill="#000000"
             id="text971">Records screened</text>
          <text
             text-anchor="middle"
             x="176.5"
             y="-331.2"
             font-family="Helvetica,sans-Serif"
             font-size="12.00"
             fill="#000000"
             id="text973">(n = 298)</text>
        </a>
      </g>
    </g>
    <!-- 7 -->
    <g
       id="node8"
       class="node">
      <title
         id="title979">7</title>
      <g
         id="a_node8">
        <a
           xlink:title="Records excluded (databases and registers)"
           id="a987">
          <polygon
             fill="none"
             stroke="#000000"
             points="590.5,-360.3005 338.5,-360.3005 338.5,-323.6995 590.5,-323.6995 590.5,-360.3005"
             id="polygon981" />
          <text
             text-anchor="middle"
             x="464.5"
             y="-345.6"
             font-family="Helvetica,sans-Serif"
             font-size="12.00"
             fill="#000000"
             id="text983">Records excluded</text>
          <text
             text-anchor="middle"
             x="464.5"
             y="-331.2"
             font-family="Helvetica,sans-Serif"
             font-size="12.00"
             fill="#000000"
             id="text985">(n = 40)</text>
        </a>
      </g>
    </g>
    <!-- 8 -->
    <g
       id="node9"
       class="node">
      <title
         id="title991">8</title>
      <g
         id="a_node9">
        <a
           xlink:title="Reports sought for retrieval (databases and registers)"
           id="a999">
          <polygon
             fill="none"
             stroke="#000000"
             points="302.5,-288.3005 50.5,-288.3005 50.5,-251.6995 302.5,-251.6995 302.5,-288.3005"
             id="polygon993" />
          <text
             text-anchor="middle"
             x="176.5"
             y="-273.6"
             font-family="Helvetica,sans-Serif"
             font-size="12.00"
             fill="#000000"
             id="text995">Reports sought for retrieval</text>
          <text
             text-anchor="middle"
             x="176.5"
             y="-259.2"
             font-family="Helvetica,sans-Serif"
             font-size="12.00"
             fill="#000000"
             id="text997">(n = 252)</text>
        </a>
      </g>
    </g>
    <!-- 9 -->
    <g
       id="node10"
       class="node">
      <title
         id="title1003">9</title>
      <g
         id="a_node10">
        <a
           xlink:title="Reports not retrieved (databases and registers)"
           id="a1011">
          <polygon
             fill="none"
             stroke="#000000"
             points="590.5,-288.3005 338.5,-288.3005 338.5,-251.6995 590.5,-251.6995 590.5,-288.3005"
             id="polygon1005" />
          <text
             text-anchor="middle"
             x="464.5"
             y="-273.6"
             font-family="Helvetica,sans-Serif"
             font-size="12.00"
             fill="#000000"
             id="text1007">Reports not retrieved</text>
          <text
             text-anchor="middle"
             x="464.5"
             y="-259.2"
             font-family="Helvetica,sans-Serif"
             font-size="12.00"
             fill="#000000"
             id="text1009">(n = 0)</text>
        </a>
      </g>
    </g>
    <!-- 10 -->
    <g
       id="node11"
       class="node">
      <title
         id="title1015">10</title>
      <g
         id="a_node11">
        <a
           xlink:title="Reports assessed for eligibility (databases and registers)"
           id="a1023">
          <polygon
             fill="none"
             stroke="#000000"
             points="302.5,-207.3005 50.5,-207.3005 50.5,-170.6995 302.5,-170.6995 302.5,-207.3005"
             id="polygon1017" />
          <text
             text-anchor="middle"
             x="176.5"
             y="-192.6"
             font-family="Helvetica,sans-Serif"
             font-size="12.00"
             fill="#000000"
             id="text1019">Reports assessed for eligibility</text>
          <text
             text-anchor="middle"
             x="176.5"
             y="-178.2"
             font-family="Helvetica,sans-Serif"
             font-size="12.00"
             fill="#000000"
             id="text1021">(n = 252)</text>
        </a>
      </g>
    </g>
    <!-- 11 -->
    <g
       id="node12"
       class="node">
      <title
         id="title1027">11</title>
      <g
         id="a_node12">
        <a
           xlink:title="Reports excluded (databases and registers)"
           id="a1037">
          <polygon
             fill="#ffffff"
             stroke="#000000"
             points="590.5,-214.7004 338.5,-214.7004 338.5,-163.2996 590.5,-163.2996 590.5,-214.7004"
             id="polygon1029" />
          <text
             text-anchor="middle"
             x="464.5"
             y="-199.8"
             font-family="Helvetica,sans-Serif"
             font-size="12.00"
             fill="#000000"
             id="text1031">Reports excluded:</text>
          <text
             text-anchor="middle"
             x="464.5"
             y="-185.4"
             font-family="Helvetica,sans-Serif"
             font-size="12.00"
             fill="#000000"
             id="text1033">Criterion 1: New task data (n = 77)</text>
          <text
             text-anchor="middle"
             x="464.5"
             y="-171"
             font-family="Helvetica,sans-Serif"
             font-size="12.00"
             fill="#000000"
             id="text1035">Criterion 2: Effect of handedness (n = 166)</text>
        </a>
      </g>
    </g>
    <!-- 12 -->
    <g
       id="node13"
       class="node">
      <title
         id="title1041">12</title>
      <g
         id="a_node13">
        <a
           xlink:title="New studies included in review"
           id="a1053">
          <polygon
             fill="none"
             stroke="#000000"
             points="302.5,-90 50.5,-90 50.5,-18 302.5,-18 302.5,-90"
             id="polygon1043" />
          <text
             text-anchor="middle"
             x="176.5"
             y="-72"
             font-family="Helvetica, sans-Serif"
             font-size="12px"
             fill="#000000"
             id="text1045">Studies included in review</text>
          <text
             text-anchor="middle"
             x="176.5"
             y="-57.6"
             font-family="Helvetica,sans-Serif"
             font-size="12.00"
             fill="#000000"
             id="text1047">(n = 9)</text>
          <text
             text-anchor="middle"
             x="176.5"
             y="-43.200001"
             font-family="Helvetica, sans-Serif"
             font-size="12px"
             fill="#000000"
             id="text1049">Effect estimatess</text>
          <text
             text-anchor="middle"
             x="176.5"
             y="-28.8"
             font-family="Helvetica,sans-Serif"
             font-size="12.00"
             fill="#000000"
             id="text1051">(n = 13)</text>
        </a>
      </g>
    </g>
    <!-- C -->
  </g>
</svg>
