<?xml version="1.0" encoding="UTF-8" standalone="no"?>
<!-- Generated by graphviz version 2.40.1 (20161225.0304)
 -->

<!-- Title: TD Pages: 1 -->

<svg
   width="599pt"
   height="559pt"
   viewBox="0.00 0.00 598.50 558.90"
   version="1.1"
   id="svg2802"
   sodipodi:docname="TTCT_prisma.svg"
   inkscape:version="1.2.2 (b0a8486541, 2022-12-01)"
   xmlns:inkscape="http://www.inkscape.org/namespaces/inkscape"
   xmlns:sodipodi="http://sodipodi.sourceforge.net/DTD/sodipodi-0.dtd"
   xmlns:xlink="http://www.w3.org/1999/xlink"
   xmlns="http://www.w3.org/2000/svg"
   xmlns:svg="http://www.w3.org/2000/svg">
  <defs
     id="defs2806" />
  <sodipodi:namedview
     id="namedview2804"
     pagecolor="#ffffff"
     bordercolor="#000000"
     borderopacity="0.25"
     inkscape:showpageshadow="2"
     inkscape:pageopacity="0.0"
     inkscape:pagecheckerboard="0"
     inkscape:deskcolor="#d1d1d1"
     inkscape:document-units="pt"
     showgrid="false"
     showguides="false"
     inkscape:zoom="0.75"
     inkscape:cx="-65.333333"
     inkscape:cy="499.33333"
     inkscape:window-width="1366"
     inkscape:window-height="768"
     inkscape:window-x="0"
     inkscape:window-y="0"
     inkscape:window-maximized="1"
     inkscape:current-layer="graph0" />
  <g
     id="graph0"
     class="graph"
     transform="scale(1 1) rotate(0) translate(4 554.9)">
    <title
       id="title2584">TD</title>
    <g
       id="a_graph0">
      <a
         xlink:title="Click the boxes for further information"
         id="a2588">
        <polygon
           fill="#ffffff"
           stroke="transparent"
           points="-4,4 -4,-554.9 594.5,-554.9 594.5,4 -4,4"
           id="polygon2586" />
      </a>
    </g>
    <!-- 3&#45;&gt;4 -->
    <!-- 3&#45;&gt;5 -->
    <!-- 4&#45;&gt;5 -->
    <g
       id="edge3"
       class="edge">
      <title
         id="title2591">4-&gt;5</title>
      <path
         fill="none"
         stroke="#000000"
         d="M302.821,-459C311.202,-459 319.6641,-459 328.0915,-459"
         id="path2593" />
      <polygon
         fill="#000000"
         stroke="#000000"
         points="328.346,-462.5001 338.346,-459 328.3459,-455.5001 328.346,-462.5001"
         id="polygon2595" />
    </g>
    <!-- 4&#45;&gt;6 -->
    <g
       id="edge4"
       class="edge">
      <title
         id="title2598">4-&gt;6</title>
      <path
         fill="none"
         stroke="#000000"
         d="M176.5,-440.461C176.5,-421.7194 176.5,-392.4961 176.5,-370.7483"
         id="path2600" />
      <polygon
         fill="#000000"
         stroke="#000000"
         points="180.0001,-370.4522 176.5,-360.4523 173.0001,-370.4523 180.0001,-370.4522"
         id="polygon2602" />
    </g>
    <!-- 5&#45;&gt;7 -->
    <!-- 6&#45;&gt;7 -->
    <g
       id="edge5"
       class="edge">
      <title
         id="title2605">6-&gt;7</title>
      <path
         fill="none"
         stroke="#000000"
         d="M302.821,-342C311.202,-342 319.6641,-342 328.0915,-342"
         id="path2607" />
      <polygon
         fill="#000000"
         stroke="#000000"
         points="328.346,-345.5001 338.346,-342 328.3459,-338.5001 328.346,-345.5001"
         id="polygon2609" />
    </g>
    <!-- 6&#45;&gt;8 -->
    <g
       id="edge6"
       class="edge">
      <title
         id="title2612">6-&gt;8</title>
      <path
         fill="none"
         stroke="#000000"
         d="M176.5,-323.4582C176.5,-315.9583 176.5,-307.1245 176.5,-298.8217"
         id="path2614" />
      <polygon
         fill="#000000"
         stroke="#000000"
         points="180.0001,-298.7292 176.5,-288.7292 173.0001,-298.7292 180.0001,-298.7292"
         id="polygon2616" />
    </g>
    <!-- 7&#45;&gt;9 -->
    <!-- 8&#45;&gt;9 -->
    <g
       id="edge7"
       class="edge">
      <title
         id="title2619">8-&gt;9</title>
      <path
         fill="none"
         stroke="#000000"
         d="M302.821,-270C311.202,-270 319.6641,-270 328.0915,-270"
         id="path2621" />
      <polygon
         fill="#000000"
         stroke="#000000"
         points="328.346,-273.5001 338.346,-270 328.3459,-266.5001 328.346,-273.5001"
         id="polygon2623" />
    </g>
    <!-- 8&#45;&gt;10 -->
    <g
       id="edge8"
       class="edge">
      <title
         id="title2626">8-&gt;10</title>
      <path
         fill="none"
         stroke="#000000"
         d="M176.5,-251.6198C176.5,-241.5742 176.5,-228.9094 176.5,-217.6023"
         id="path2628" />
      <polygon
         fill="#000000"
         stroke="#000000"
         points="180.0001,-217.3074 176.5,-207.3074 173.0001,-217.3074 180.0001,-217.3074"
         id="polygon2630" />
    </g>
    <!-- 9&#45;&gt;11 -->
    <!-- 10&#45;&gt;12 -->
    <g
       id="edge10"
       class="edge">
      <title
         id="title2633">10-&gt;12</title>
      <path
         fill="none"
         stroke="#000000"
         d="M176.5,-170.5119C176.5,-152.5037 176.5,-124.3978 176.5,-100.3026"
         id="path2635" />
      <polygon
         fill="#000000"
         stroke="#000000"
         points="180.0001,-100.2628 176.5,-90.2628 173.0001,-100.2629 180.0001,-100.2628"
         id="polygon2637" />
    </g>
    <!-- 10&#45;&gt;C -->
    <g
       id="edge9"
       class="edge">
      <title
         id="title2640">10-&gt;C</title>
      <path
         fill="none"
         stroke="#000000"
         d="M302.821,-189C311.202,-189 319.6641,-189 328.0915,-189"
         id="path2642" />
      <polygon
         fill="#000000"
         stroke="#000000"
         points="328.346,-192.5001 338.346,-189 328.3459,-185.5001 328.346,-192.5001"
         id="polygon2644" />
    </g>
    <!-- identification -->
    <!-- screening -->
    <g
       id="node2"
       class="node">
      <title
         id="title2657">screening</title>
      <g
         id="a_node2">
        <a
           xlink:title="Blue screening box"
           id="a2663">
          <path
             fill="#bcd2ee"
             stroke="#bcd2ee"
             d="M19.3333,-384C19.3333,-384 9.6667,-384 9.6667,-384 4.8333,-384 0,-379.1667 0,-374.3333 0,-374.3333 0,-159.6667 0,-159.6667 0,-154.8333 4.8333,-150 9.6667,-150 9.6667,-150 19.3333,-150 19.3333,-150 24.1667,-150 29,-154.8333 29,-159.6667 29,-159.6667 29,-374.3333 29,-374.3333 29,-379.1667 24.1667,-384 19.3333,-384"
             id="path2659" />
          <text
             text-anchor="middle"
             x="263.4"
             y="16.5"
             font-family="Helvetica,sans-Serif"
             font-size="12.00"
             fill="#000000"
             transform="rotate(-90)"
             id="text2661">Screening</text>
        </a>
      </g>
    </g>
    <!-- included -->
    <g
       id="node3"
       class="node">
      <title
         id="title2667">included</title>
      <g
         id="a_node3">
        <a
           xlink:title="Blue included box"
           id="a2673">
          <path
             fill="#bcd2ee"
             stroke="#bcd2ee"
             d="M19.3333,-108C19.3333,-108 9.6667,-108 9.6667,-108 4.8333,-108 0,-103.1667 0,-98.3333 0,-98.3333 0,-9.6667 0,-9.6667 0,-4.8333 4.8333,0 9.6667,0 9.6667,0 19.3333,0 19.3333,0 24.1667,0 29,-4.8333 29,-9.6667 29,-9.6667 29,-98.3333 29,-98.3333 29,-103.1667 24.1667,-108 19.3333,-108"
             id="path2669" />
          <text
             text-anchor="middle"
             x="50.4"
             y="16.5"
             font-family="Helvetica,sans-Serif"
             font-size="12.00"
             fill="#000000"
             transform="rotate(-90)"
             id="text2671">Included</text>
        </a>
      </g>
    </g>
    <!-- 3 -->
    <!-- 4 -->
    <g
       id="node5"
       class="node">
      <title
         id="title2687">4</title>
      <g
         id="a_node5">
        <a
           xlink:title="Records identified from: Databases and Registers"
           id="a2695">
          <polygon
             fill="none"
             stroke="#000000"
             points="302.5,-477.3005 50.5,-477.3005 50.5,-440.6995 302.5,-440.6995 302.5,-477.3005"
             id="polygon2689" />
          <text
             text-anchor="middle"
             x="176.5"
             y="-462.6"
             font-family="Helvetica,sans-Serif"
             font-size="12.00"
             fill="#000000"
             id="text2691">Records identified from:</text>
          <text
             text-anchor="middle"
             x="176.5"
             y="-448.2"
             font-family="Helvetica,sans-Serif"
             font-size="12.00"
             fill="#000000"
             id="text2693">Google Scholar (n = 343)</text>
        </a>
      </g>
    </g>
    <!-- 5 -->
    <g
       id="node6"
       class="node">
      <title
         id="title2699">5</title>
      <g
         id="a_node6">
        <a
           xlink:title="Duplicate records"
           id="a2707">
          <polygon
             fill="none"
             stroke="#000000"
             points="590.5,-477.3005 338.5,-477.3005 338.5,-440.6995 590.5,-440.6995 590.5,-477.3005"
             id="polygon2701" />
          <text
             text-anchor="middle"
             x="464.5"
             y="-462.6"
             font-family="Helvetica,sans-Serif"
             font-size="12.00"
             fill="#000000"
             id="text2703">Records removed before screening:</text>
          <text
             text-anchor="middle"
             x="464.5"
             y="-448.2"
             font-family="Helvetica,sans-Serif"
             font-size="12.00"
             fill="#000000"
             id="text2705">Duplicate records (n = 7)</text>
        </a>
      </g>
    </g>
    <!-- 6 -->
    <g
       id="node7"
       class="node">
      <title
         id="title2711">6</title>
      <g
         id="a_node7">
        <a
           xlink:title="Records screened (databases and registers)"
           id="a2719">
          <polygon
             fill="none"
             stroke="#000000"
             points="302.5,-360.3005 50.5,-360.3005 50.5,-323.6995 302.5,-323.6995 302.5,-360.3005"
             id="polygon2713" />
          <text
             text-anchor="middle"
             x="176.5"
             y="-345.6"
             font-family="Helvetica,sans-Serif"
             font-size="12.00"
             fill="#000000"
             id="text2715">Records screened</text>
          <text
             text-anchor="middle"
             x="176.5"
             y="-331.2"
             font-family="Helvetica,sans-Serif"
             font-size="12.00"
             fill="#000000"
             id="text2717">(n = 336)</text>
        </a>
      </g>
    </g>
    <!-- 7 -->
    <g
       id="node8"
       class="node">
      <title
         id="title2723">7</title>
      <g
         id="a_node8">
        <a
           xlink:title="Records excluded (databases and registers)"
           id="a2731">
          <polygon
             fill="none"
             stroke="#000000"
             points="590.5,-360.3005 338.5,-360.3005 338.5,-323.6995 590.5,-323.6995 590.5,-360.3005"
             id="polygon2725" />
          <text
             text-anchor="middle"
             x="464.5"
             y="-345.6"
             font-family="Helvetica,sans-Serif"
             font-size="12.00"
             fill="#000000"
             id="text2727">Records excluded</text>
          <text
             text-anchor="middle"
             x="464.5"
             y="-331.2"
             font-family="Helvetica,sans-Serif"
             font-size="12.00"
             fill="#000000"
             id="text2729">(n = 108)</text>
        </a>
      </g>
    </g>
    <!-- 8 -->
    <g
       id="node9"
       class="node">
      <title
         id="title2735">8</title>
      <g
         id="a_node9">
        <a
           xlink:title="Reports sought for retrieval (databases and registers)"
           id="a2743">
          <polygon
             fill="none"
             stroke="#000000"
             points="302.5,-288.3005 50.5,-288.3005 50.5,-251.6995 302.5,-251.6995 302.5,-288.3005"
             id="polygon2737" />
          <text
             text-anchor="middle"
             x="176.5"
             y="-273.6"
             font-family="Helvetica,sans-Serif"
             font-size="12.00"
             fill="#000000"
             id="text2739">Reports sought for retrieval</text>
          <text
             text-anchor="middle"
             x="176.5"
             y="-259.2"
             font-family="Helvetica,sans-Serif"
             font-size="12.00"
             fill="#000000"
             id="text2741">(n = 229)</text>
        </a>
      </g>
    </g>
    <!-- 9 -->
    <g
       id="node10"
       class="node">
      <title
         id="title2747">9</title>
      <g
         id="a_node10">
        <a
           xlink:title="Reports not retrieved (databases and registers)"
           id="a2755">
          <polygon
             fill="none"
             stroke="#000000"
             points="590.5,-288.3005 338.5,-288.3005 338.5,-251.6995 590.5,-251.6995 590.5,-288.3005"
             id="polygon2749" />
          <text
             text-anchor="middle"
             x="464.5"
             y="-273.6"
             font-family="Helvetica,sans-Serif"
             font-size="12.00"
             fill="#000000"
             id="text2751">Reports not retrieved</text>
          <text
             text-anchor="middle"
             x="464.5"
             y="-259.2"
             font-family="Helvetica,sans-Serif"
             font-size="12.00"
             fill="#000000"
             id="text2753">(n = 1)</text>
        </a>
      </g>
    </g>
    <!-- 10 -->
    <g
       id="node11"
       class="node">
      <title
         id="title2759">10</title>
      <g
         id="a_node11">
        <a
           xlink:title="Reports assessed for eligibility (databases and registers)"
           id="a2767">
          <polygon
             fill="none"
             stroke="#000000"
             points="302.5,-207.3005 50.5,-207.3005 50.5,-170.6995 302.5,-170.6995 302.5,-207.3005"
             id="polygon2761" />
          <text
             text-anchor="middle"
             x="176.5"
             y="-192.6"
             font-family="Helvetica,sans-Serif"
             font-size="12.00"
             fill="#000000"
             id="text2763">Reports assessed for eligibility</text>
          <text
             text-anchor="middle"
             x="176.5"
             y="-178.2"
             font-family="Helvetica,sans-Serif"
             font-size="12.00"
             fill="#000000"
             id="text2765">(n = 228)</text>
        </a>
      </g>
    </g>
    <!-- 11 -->
    <g
       id="node12"
       class="node">
      <title
         id="title2771">11</title>
      <g
         id="a_node12">
        <a
           xlink:title="Reports excluded (databases and registers)"
           id="a2781">
          <polygon
             fill="#ffffff"
             stroke="#000000"
             points="590.5,-214.7004 338.5,-214.7004 338.5,-163.2996 590.5,-163.2996 590.5,-214.7004"
             id="polygon2773" />
          <text
             text-anchor="middle"
             x="464.5"
             y="-199.8"
             font-family="Helvetica,sans-Serif"
             font-size="12.00"
             fill="#000000"
             id="text2775">Reports excluded:</text>
          <text
             text-anchor="middle"
             x="464.5"
             y="-185.4"
             font-family="Helvetica,sans-Serif"
             font-size="12.00"
             fill="#000000"
             id="text2777">Criterion 1: New task data (n = 75)</text>
          <text
             text-anchor="middle"
             x="464.5"
             y="-171"
             font-family="Helvetica,sans-Serif"
             font-size="12.00"
             fill="#000000"
             id="text2779">Criterion 2: Effect of handedness (n = 146)</text>
        </a>
      </g>
    </g>
    <!-- 12 -->
    <g
       id="node13"
       class="node">
      <title
         id="title2785">12</title>
      <g
         id="a_node13">
        <a
           xlink:title="New studies included in review"
           id="a2797">
          <polygon
             fill="none"
             stroke="#000000"
             points="302.5,-90 50.5,-90 50.5,-18 302.5,-18 302.5,-90"
             id="polygon2787" />
          <text
             text-anchor="middle"
             x="176.5"
             y="-72"
             font-family="Helvetica, sans-Serif"
             font-size="12px"
             fill="#000000"
             id="text2789">Studies included in review</text>
          <text
             text-anchor="middle"
             x="176.5"
             y="-57.6"
             font-family="Helvetica,sans-Serif"
             font-size="12.00"
             fill="#000000"
             id="text2791">(n = 7)</text>
          <text
             text-anchor="middle"
             x="176.5"
             y="-43.200001"
             font-family="Helvetica, sans-Serif"
             font-size="12px"
             fill="#000000"
             id="text2793">Effect estimates</text>
          <text
             text-anchor="middle"
             x="176.5"
             y="-28.799999"
             font-family="Helvetica, sans-Serif"
             font-size="12px"
             fill="#000000"
             id="text2795">(n = 30)</text>
        </a>
      </g>
    </g>
    <!-- C -->
    <g
       id="node1"
       class="node"
       transform="translate(2.3e-7,-2.613285)">
      <title
         id="title903">identification</title>
      <g
         id="a_node1">
        <a
           xlink:title="Blue identification box"
           id="a909">
          <path
             fill="#bcd2ee"
             stroke="#bcd2ee"
             d="m 19.299634,-495.66972 c 0,0 -9.5992684,0 -9.5992684,0 -4.7997337,0 -9.59936806,7.03209 -9.59936806,14.06433 0,0 0,50.43735 0,50.43735 0,7.03224 4.79963436,14.06433 9.59936806,14.06433 0,0 9.5992684,0 9.5992684,0 4.799734,0 9.599368,-7.03209 9.599368,-14.06433 0,0 0,-50.43735 0,-50.43735 0,-7.03224 -4.799634,-14.06433 -9.599368,-14.06433"
             id="path905"
             style="stroke-width:1.202" />
          <text
             text-anchor="middle"
             x="456.20071"
             y="16.5"
             font-family="Helvetica, sans-Serif"
             font-size="12px"
             fill="#000000"
             transform="rotate(-90)"
             id="text907">Identification</text>
        </a>
      </g>
    </g>
    <g
       id="node4"
       class="node"
       transform="translate(-0.00613239,-6.2602255e-4)">
      <title
         id="title933">3</title>
      <g
         id="a_node4">
        <a
           xlink:title="Yellow title box; Identification of new studies via databases and registers"
           id="a939">
          <path
             fill="#ffc125"
             stroke="#ffc125"
             d="m 580.8333,-550.9 c 0,0 -520.6666,0 -520.6666,0 -4.8334,0 -9.6667,4.8333 -9.6667,9.6667 0,0 0,9.6666 0,9.6666 0,4.8334 4.8333,9.6667 9.6667,9.6667 0,0 520.6666,0 520.6666,0 4.8334,0 9.6667,-4.8333 9.6667,-9.6667 0,0 0,-9.6666 0,-9.6666 0,-4.8334 -4.8333,-9.6667 -9.6667,-9.6667"
             id="path935" />
          <text
             text-anchor="middle"
             x="320.5"
             y="-532.79999"
             font-family="Helvetica, sans-Serif"
             font-size="12px"
             fill="#000000"
             id="text937">Torrance Tests of Creative Thinking: Identification of studies via database search</text>
        </a>
      </g>
    </g>
  </g>
</svg>
